<svg width="110" height="36" viewBox="0 0 110 36" fill="none" xmlns="http://www.w3.org/2000/svg">
<g clip-path="url(#clip0_45_790)">
<path d="M12.7417 14.792L17.7948 12.3138L22.8364 15.188L22.3781 21.1854L17.3937 23.6976L12.8448 20.7894L12.7417 14.792Z" fill="#FFB236"/>
<path d="M51.0125 16.9193C49.0531 16.9193 47.4146 16.3196 46.1083 15.1088C44.8021 13.898 44.149 12.3477 44.149 10.4466C44.149 8.54558 44.8021 6.97267 46.0969 5.77319C47.3917 4.57371 49.0302 3.97397 51.0125 3.97397C53.5562 3.97397 55.401 5.09424 56.5469 7.33478L53.7396 8.64742C53.5219 8.13821 53.1667 7.70821 52.6625 7.35741C52.1583 7.00662 51.6083 6.83688 51.024 6.83688C49.9927 6.83688 49.1562 7.18768 48.4917 7.87794C47.8271 8.56821 47.4948 9.42822 47.4948 10.458C47.4948 11.4877 47.8271 12.3477 48.4917 13.038C49.1562 13.7283 50.0042 14.079 51.024 14.079C51.6198 14.079 52.1698 13.9093 52.6625 13.5585C53.1667 13.2077 53.5219 12.7777 53.7396 12.2685L56.5469 13.5811C56.0656 14.5317 55.3667 15.3238 54.4615 15.9688C53.5562 16.6138 52.4104 16.9306 51.0125 16.9306V16.9193Z" fill="#177769"/>
<path d="M62.551 16.693H59.6292V10.1411H57.1198V7.629H65.049V10.1411H62.5625V16.693H62.551Z" fill="#177769"/>
<path d="M72.05 16.9193C70.9729 16.9193 70.0677 16.4893 69.3344 15.6293V20.1557H66.4125V7.629H69.3344V8.68137C70.0448 7.83268 70.95 7.40268 72.05 7.40268C73.2417 7.40268 74.2156 7.82137 74.9604 8.65874C75.7052 9.49612 76.0833 10.6617 76.0833 12.144C76.0833 13.6264 75.7052 14.8146 74.9604 15.652C74.2156 16.4893 73.2417 16.908 72.05 16.908V16.9193ZM71.076 14.3619C71.6604 14.3619 72.1417 14.1583 72.5198 13.7622C72.8979 13.3661 73.0927 12.823 73.0927 12.144C73.0927 11.4651 72.8979 10.9445 72.5198 10.5485C72.1417 10.1524 71.6604 9.94875 71.076 9.94875C70.7552 9.94875 70.4344 10.028 70.1021 10.1864C69.7698 10.3448 69.5062 10.5372 69.3344 10.7748V13.5359C69.5062 13.7735 69.7698 13.9659 70.1021 14.1243C70.4344 14.2827 70.7666 14.3619 71.076 14.3619Z" fill="#177769"/>
<path d="M85.9375 16.693H83.0156V15.7877C82.7291 16.1272 82.3166 16.3988 81.8125 16.6025C81.2968 16.8062 80.7468 16.908 80.1739 16.908C79.3718 16.908 78.65 16.6477 77.9968 16.1272C77.3437 15.6067 77.0229 14.8711 77.0229 13.9206C77.0229 12.9248 77.3437 12.1893 77.9739 11.714C78.6041 11.2501 79.3375 11.0124 80.1739 11.0124C81.5031 11.0124 82.4541 11.3632 83.027 12.0648V10.9785C83.027 10.5824 82.8666 10.2543 82.5343 10.0166C82.202 9.77901 81.7437 9.65453 81.1708 9.65453C80.1968 9.65453 79.326 9.97138 78.5697 10.6164L77.527 8.79453C78.6385 7.85531 80.025 7.39136 81.6864 7.39136C82.2708 7.39136 82.8093 7.44794 83.2906 7.57241C83.7833 7.69689 84.2302 7.87794 84.6427 8.14952C85.0552 8.40979 85.376 8.78321 85.6166 9.28111C85.8458 9.76769 85.9718 10.3561 85.9718 11.0238V16.693H85.9375ZM81.377 15.0183C82.1677 15.0183 82.7062 14.8033 83.0156 14.3619V13.5585C82.6947 13.1285 82.1562 12.9248 81.377 12.9248C80.9645 12.9248 80.6093 13.0153 80.3343 13.1964C80.0593 13.3775 79.9218 13.6377 79.9218 13.9772C79.9218 14.3167 80.0593 14.5769 80.3343 14.758C80.6093 14.939 80.9645 15.0296 81.377 15.0296V15.0183Z" fill="#177769"/>
<path d="M91.002 16.693H88.0802V7.629H91.002V10.7409H94.2906V7.629H97.2125V16.693H94.2906V13.253H91.002V16.693Z" fill="#177769"/>
<path d="M107.685 16.693H104.764V15.7877C104.477 16.1272 104.065 16.3988 103.56 16.6025C103.045 16.8062 102.495 16.908 101.922 16.908C101.12 16.908 100.398 16.6477 99.7448 16.1272C99.0917 15.6067 98.7708 14.8711 98.7708 13.9206C98.7708 12.9248 99.0917 12.1893 99.7219 11.714C100.352 11.2501 101.085 11.0124 101.922 11.0124C103.251 11.0124 104.202 11.3632 104.775 12.0648V10.9785C104.775 10.5824 104.615 10.2543 104.282 10.0166C103.95 9.77901 103.492 9.65453 102.919 9.65453C101.945 9.65453 101.074 9.97138 100.318 10.6164L99.275 8.79453C100.386 7.85531 101.773 7.39136 103.434 7.39136C104.019 7.39136 104.557 7.44794 105.039 7.57241C105.531 7.69689 105.978 7.87794 106.391 8.14952C106.803 8.40979 107.124 8.78321 107.365 9.28111C107.594 9.76769 107.72 10.3561 107.72 11.0238V16.693H107.685ZM103.125 15.0183C103.916 15.0183 104.454 14.8033 104.764 14.3619V13.5585C104.443 13.1285 103.904 12.9248 103.125 12.9248C102.713 12.9248 102.357 13.0153 102.082 13.1964C101.807 13.3775 101.67 13.6377 101.67 13.9772C101.67 14.3167 101.807 14.5769 102.082 14.758C102.357 14.939 102.713 15.0296 103.125 15.0296V15.0183Z" fill="#177769"/>
<path d="M49.3969 32.5352C48.2167 32.5352 47.1396 32.3542 46.1771 31.9921C45.2031 31.63 44.4698 31.1547 43.9656 30.5663L45.6156 28.371C46.0511 28.7784 46.6125 29.1065 47.3115 29.3328C48.0104 29.5592 48.675 29.6836 49.2823 29.6836C50.0156 29.6836 50.5886 29.5705 50.9896 29.3442C51.3906 29.1178 51.5969 28.8236 51.5969 28.4615C51.5969 28.0994 51.4136 27.8278 51.0354 27.6694C50.6573 27.4997 50.0271 27.4205 49.1448 27.4205H46.5552V24.5915H49.1448C50.6344 24.5915 51.3906 24.2633 51.3906 23.6183C51.3906 23.2449 51.1729 22.962 50.749 22.7696C50.325 22.5773 49.7636 22.4754 49.0646 22.4754C47.7354 22.4754 46.6125 22.8715 45.6958 23.6749L44.1146 21.6494C44.6761 21.0383 45.4094 20.5404 46.3261 20.1783C47.2427 19.8049 48.2625 19.6238 49.3969 19.6238C51.0011 19.6238 52.2844 19.9407 53.224 20.563C54.1636 21.1854 54.6448 22.0228 54.6448 23.0639C54.6448 23.7768 54.3698 24.3878 53.8427 24.9083C53.3042 25.4289 52.6511 25.7457 51.8719 25.8702C52.6281 25.9494 53.3156 26.2436 53.9344 26.7755C54.5531 27.3073 54.8511 27.9976 54.8511 28.8349C54.8511 29.9213 54.3354 30.8152 53.3156 31.5055C52.2844 32.1958 50.9781 32.5466 49.3854 32.5466L49.3969 32.5352Z" fill="#177769"/>
<path d="M59.5146 32.3089H56.5927V23.2449H59.5146V26.3568H62.8031V23.2449H65.725V32.3089H62.8031V28.8689H59.5146V32.3089Z" fill="#177769"/>
<path d="M76.1979 32.3089H73.276V31.4036C72.9896 31.7431 72.5771 32.0147 72.0729 32.2184C71.5573 32.4221 71.0073 32.5239 70.4344 32.5239C69.6323 32.5239 68.9104 32.2636 68.2573 31.7431C67.6042 31.2226 67.2833 30.4871 67.2833 29.5365C67.2833 28.5407 67.6042 27.8052 68.2344 27.3299C68.8646 26.866 69.5979 26.6283 70.4344 26.6283C71.7635 26.6283 72.7146 26.9791 73.2875 27.6807V26.5944C73.2875 26.1983 73.1271 25.8702 72.7948 25.6325C72.4625 25.3949 72.0042 25.2704 71.4312 25.2704C70.4573 25.2704 69.5864 25.5873 68.8302 26.2323L67.7875 24.4104C68.8989 23.4712 70.2854 23.0073 71.9469 23.0073C72.5312 23.0073 73.0698 23.0638 73.551 23.1883C74.0437 23.3128 74.4906 23.4938 74.9031 23.7654C75.3156 24.0257 75.6365 24.3991 75.8771 24.897C76.1062 25.3836 76.2323 25.972 76.2323 26.6397V32.3089H76.1979ZM71.6375 30.6342C72.4281 30.6342 72.9667 30.4192 73.276 29.9778V29.1744C72.9552 28.7444 72.4167 28.5407 71.6375 28.5407C71.225 28.5407 70.8698 28.6313 70.5948 28.8123C70.3198 28.9934 70.1823 29.2536 70.1823 29.5931C70.1823 29.9326 70.3198 30.1928 70.5948 30.3739C70.8698 30.555 71.225 30.6455 71.6375 30.6455V30.6342Z" fill="#177769"/>
<path d="M81.2511 32.3089H78.3292V23.2449H81.2511V26.3568H84.5396V23.2449H87.4615V32.3089H84.5396V28.8689H81.2511V32.3089Z" fill="#177769"/>
<path d="M92.3886 32.3089H89.5927V23.2449H92.5146V27.9976L95.7802 23.2449H98.725V32.3089H95.8031V27.3186L92.3771 32.3089H92.3886Z" fill="#177769"/>
<path d="M103.652 32.3089H100.856V23.2449H103.778V27.9976L107.044 23.2449H109.989V32.3089H107.067V27.3186L103.641 32.3089H103.652ZM108.762 20.7441C107.937 21.8417 106.826 22.3962 105.44 22.3962C104.053 22.3962 102.942 21.8417 102.094 20.7441L103.343 19.7257C103.893 20.4499 104.58 20.812 105.428 20.812C106.276 20.812 107.009 20.4499 107.502 19.7257L108.751 20.7441H108.762Z" fill="#177769"/>
<path d="M35.5781 29.4007H33.401V6.6332C33.401 4.43792 31.5906 2.65002 29.3677 2.65002H6.32498V0.5H29.3791C32.8052 0.5 35.5896 3.24976 35.5896 6.6332V29.4007H35.5781Z" fill="#177769"/>
<path d="M29.3791 35.5226H6.32498C2.89894 35.5226 0.114568 32.7729 0.114568 29.4007V6.63321H2.29165V29.4007C2.29165 31.596 4.10207 33.3839 6.32498 33.3839H29.3791V35.534V35.5226Z" fill="#177769"/>
<path d="M17.8521 4.80003C10.4729 4.80003 4.46873 10.7296 4.46873 18.017C4.46873 25.3044 10.4729 31.2339 17.8521 31.2339C25.2312 31.2339 31.2354 25.3044 31.2354 18.017C31.2354 10.7296 25.2312 4.80003 17.8521 4.80003ZM28.9093 16.2856L24.0969 19.0694V8.82849C26.6291 10.5146 28.4166 13.1851 28.9093 16.2856ZM20.0406 21.4117L17.8521 22.6565L13.7844 20.3367V15.6972L15.1823 14.9051L17.8635 13.3775L21.9312 15.6972V20.3254L20.0521 21.4117H20.0406ZM21.9198 7.71953V13.219L20.6364 12.4835L13.2344 7.93453C14.6437 7.30084 16.2021 6.93873 17.8406 6.93873C19.2729 6.93873 20.6479 7.22163 21.9083 7.70821L21.9198 7.71953ZM11.1375 9.17928L15.8239 12.0535L11.6073 14.4525L6.68019 17.2588C6.90935 13.9546 8.60519 11.0464 11.1375 9.16796V9.17928ZM6.78331 19.6917L11.6073 16.942V27.2055C9.06352 25.5081 7.26456 22.8149 6.78331 19.6917ZM13.7729 28.3257V22.8262L14.5406 23.2675L22.4239 28.1221C21.026 28.7444 19.4791 29.0952 17.8521 29.0952C16.4198 29.0952 15.0448 28.8123 13.7844 28.3257H13.7729ZM24.5323 26.8886L19.8458 24.0031L21.1291 23.2675L24.0854 21.5815V21.5588L29.0125 18.7072C28.8062 22.0454 27.0875 24.9876 24.5323 26.8773V26.8886Z" fill="#177769"/>
<path d="M1.7875 4.07581C2.77471 4.07581 3.575 3.28547 3.575 2.31053C3.575 1.3356 2.77471 0.545258 1.7875 0.545258C0.800291 0.545258 0 1.3356 0 2.31053C0 3.28547 0.800291 4.07581 1.7875 4.07581Z" fill="#177769"/>
<path d="M33.9167 35.5C34.9039 35.5 35.7042 34.7097 35.7042 33.7347C35.7042 32.7598 34.9039 31.9695 33.9167 31.9695C32.9295 31.9695 32.1292 32.7598 32.1292 33.7347C32.1292 34.7097 32.9295 35.5 33.9167 35.5Z" fill="#177769"/>
</g>
<defs>
<clipPath id="clip0_45_790">
<rect width="110" height="35" fill="white" transform="translate(0 0.5)"/>
</clipPath>
</defs>
</svg>
